Coordinates
version=1
nRows=16
nColumns=40
inDegrees=yes

Units are S.I. units (second, meters, Newtons, ...)
Angles are in degrees.

endheader
time	pelvis_tilt	pelvis_list	pelvis_rotation	pelvis_tx	pelvis_ty	pelvis_tz	hip_flexion_r	hip_adduction_r	hip_rotation_r	knee_angle_r	knee_angle_r_beta	ankle_angle_r	subtalar_angle_r	mtp_angle_r	hip_flexion_l	hip_adduction_l	hip_rotation_l	knee_angle_l	knee_angle_l_beta	ankle_angle_l	subtalar_angle_l	mtp_angle_l	lumbar_extension	lumbar_bending	lumbar_rotation	arm_flex_r	arm_add_r	arm_rot_r	elbow_flex_r	pro_sup_r	wrist_flex_r	wrist_dev_r	arm_flex_l	arm_add_l	arm_rot_l	elbow_flex_l	pro_sup_l	wrist_flex_l	wrist_dev_l
      0.93000000	     -1.33566924	      9.91858641	     -5.32964821	      0.48273063	      0.94602641	     -1.49100685	     16.96608066	    -19.83653374	     -9.72694666	    -64.85943388	     -1.13201067	      0.86098468	    -18.33380682	     12.51462406	     12.75953797	     -8.47385834	     10.66210063	    -19.83213929	     -0.34613613	      4.03617212	     10.72175132	      4.00269228	      0.26358702	     -8.29431903	      6.29625673	      3.94637362	    -11.49903227	    -15.43800460	     36.10311015	     89.95437384	      0.00000000	      0.00000000	    -10.25089446	     10.00140641	      4.46944988	     13.96799980	     89.95437384	      0.00000000	      0.00000000
      0.94000000	     -1.39750664	      9.45304193	     -5.36075665	      0.49392930	      0.94774798	     -1.49131604	     18.63743161	    -18.85389325	     -9.90902879	    -64.44416576	     -1.12476288	      1.88200471	    -18.32748323	     12.75743815	     11.51285559	     -8.09913187	     10.78955924	    -18.95437951	     -0.33081633	      4.31607703	     10.21062634	      3.72583523	     -0.01128684	     -7.72189679	      5.73412806	      3.97750424	    -11.42053572	    -14.85148419	     34.74522114	     89.95437384	      0.00000000	      0.00000000	     -8.81827268	     10.37230076	      4.69240726	     14.60362505	     89.95437384	      0.00000000	      0.00000000
      0.95000000	     -1.22208512	      8.57767167	     -5.14610068	      0.50530416	      0.94969670	     -1.49142661	     19.66938007	    -17.45277055	    -10.62071653	    -63.56767932	     -1.10946530	      3.59171315	    -18.29089189	     18.95870457	     10.05922941	     -7.11474734	     11.63659630	    -18.27997496	     -0.31904575	      3.95347573	      8.44208920	      0.11677637	     -0.66485900	     -6.76324224	      4.68093333	      4.13499060	    -11.33673623	    -14.08702160	     33.44573729	     89.95437384	      0.00000000	      0.00000000	     -7.29559891	     10.52378329	      6.63184439	     15.07156331	     89.95437384	      0.00000000	      0.00000000
      0.96000000	     -1.51840658	      8.36618545	     -4.85294136	      0.51670897	      0.95043440	     -1.49236015	     21.40628600	    -16.99482876	    -11.34782419	    -62.62494259	     -1.09301144	      3.96717948	    -18.19336653	     18.69538890	      9.18369191	     -7.02284730	     11.94325887	    -17.55883650	     -0.30645951	      4.32227574	      8.28487744	      0.01857522	     -0.62703005	     -6.41949659	      3.95767690	      3.78631694	    -11.27393984	    -13.72671672	     32.57736369	     89.95437384	      0.00000000	      0.00000000	     -5.85264339	     11.01484870	      6.51519108	     15.76160293	     89.95437384	      0.00000000	      0.00000000
      0.97000000	     -0.99764382	      7.66718512	     -4.21987580	      0.52855641	      0.95270095	     -1.49319851	     21.60814339	    -16.07086076	    -12.64359455	    -60.88949281	     -1.06272213	      4.24576023	    -17.97312105	     18.71313425	      7.05940090	     -6.59311419	     10.94252675	    -16.28676734	     -0.28425771	      4.27087207	      7.57489854	     -0.38998100	     -1.61690240	     -5.64338721	      2.62095334	      3.90108725	    -11.20223297	    -13.25817664	     31.12956244	     89.95437384	      0.00000000	      0.00000000	     -4.40239009	     11.51252795	      6.70255483	     16.60005908	     89.95437384	      0.00000000	      0.00000000
      0.98000000	     -1.33123069	      7.55628719	     -3.86509630	      0.53997041	      0.95277924	     -1.49396565	     23.23278772	    -15.71730242	    -13.37960654	    -59.42261447	     -1.03712027	      4.58237341	    -17.70406378	     18.43631821	      6.30738466	     -6.55873185	     11.11948958	    -15.69075127	     -0.27385527	      4.65794783	      7.30190381	     -0.51816787	     -1.49338746	     -5.41618352	      1.83509452	      3.42735535	    -11.11837942	    -13.03237317	     30.44684173	     89.95437384	      0.00000000	      0.00000000	     -2.99513411	     12.07204283	      6.60583041	     17.29101969	     89.95437384	      0.00000000	      0.00000000
      0.99000000	     -1.28967223	      6.88856457	     -3.06384743	      0.55143784	      0.95364660	     -1.49480786	     23.90380281	    -14.87078782	    -14.74913963	    -57.32378029	     -1.00048871	      4.92342109	    -17.28355514	     18.27632044	      4.89057392	     -6.02469664	      9.97204870	    -14.66420128	     -0.25593859	      4.78290816	      6.42961680	     -0.79363848	     -1.87076859	     -4.63533732	      0.50945813	      3.48817524	    -11.07019051	    -12.65679918	     28.85350398	     89.95437384	      0.00000000	      0.00000000	     -1.52336036	     12.68621468	      6.35580270	     18.01081170	     89.95437384	      0.00000000	      0.00000000
      1.00000000	     -0.61892157	      6.15882850	     -2.28369126	      0.56363035	      0.95510101	     -1.49553192	     23.55780577	    -14.15328205	    -16.60135026	    -54.73216629	     -0.95525651	      5.04969770	    -16.81821637	     17.27946903	      2.94308822	     -5.23885171	     10.12671415	    -13.89368099	     -0.24249048	      3.53684374	      5.54884003	     -7.89628707	     -2.92225025	     -3.78379137	     -0.83668640	      3.20560549	    -11.00488520	    -12.69213751	     28.09459441	     89.95437384	      0.00000000	      0.00000000	     -0.05407015	     13.27700275	      6.35247406	     18.86624119	     89.95437384	      0.00000000	      0.00000000
      1.01000000	     -0.64420417	      5.84236400	     -1.51318754	      0.57515700	      0.95504881	     -1.49640147	     24.26417538	    -13.81722653	    -17.99765969	    -52.29588583	     -0.91273539	      5.33158094	    -16.23421739	     17.16121439	      1.90390258	     -4.93920316	      9.69963537	    -13.37245730	     -0.23339341	      3.84954804	      4.95929479	     -8.01307328	     -3.15857894	     -3.34738133	     -2.05482818	      2.96835685	    -10.84603239	    -13.04204060	     27.04721942	     89.95437384	      0.00000000	      0.00000000	      1.39040708	     13.95540011	      6.16662024	     19.68803695	     89.95437384	      0.00000000	      0.00000000
      1.02000000	     -1.07348650	      6.09671575	     -1.20424906	      0.58636149	      0.95378344	     -1.49705137	     25.78343092	    -13.92690018	    -18.58397318	    -50.01718873	     -0.87296463	      5.58835858	    -15.80947493	     16.94324613	      1.45354303	     -5.24170771	     10.03866591	    -13.06913404	     -0.22809942	      4.22800809	      4.77373342	     -8.00480714	     -2.90336773	     -3.49369077	     -2.73678623	      2.37058564	    -10.84626932	    -12.96693135	     26.62152022	     89.95437384	      0.00000000	      0.00000000	      2.83118212	     14.64561932	      6.18436054	     20.50959091	     89.95437384	      0.00000000	      0.00000000
      1.03000000	     -0.57335886	      5.23299933	     -0.26867503	      0.59863305	      0.95433862	     -1.49724688	     25.24680599	    -12.99318671	    -20.47033193	    -46.65653948	     -0.81431023	      5.55031232	    -14.87168636	     16.78539933	     -0.31604132	     -4.17779287	      9.75515432	    -12.31077166	     -0.21486350	      4.29725569	      2.92076831	     -8.93449406	     -3.64693140	     -2.50528002	     -4.07871765	      2.26084136	    -10.62597455	    -13.93160446	     25.30261359	     89.95437384	      0.00000000	      0.00000000	      4.26238740	     15.40083422	      5.56530060	     21.33398693	     89.95437384	      0.00000000	      0.00000000
      1.04000000	     -0.63923173	      5.06916409	      0.31852575	      0.61027310	      0.95341888	     -1.49742250	     25.84014987	    -12.73673917	    -21.71477981	    -43.70581888	     -0.76281044	      5.41340834	    -14.30321717	     16.74286915	     -1.25293519	     -3.95836800	      9.56278520	    -11.89436132	     -0.20759577	      4.63924326	      2.49253302	     -9.19172778	     -3.77878368	     -2.23760823	     -5.03598432	      1.89733193	    -10.48834079	    -14.57881467	     24.45762969	     89.95437384	      0.00000000	      0.00000000	      5.66751746	     16.17156937	      5.32485005	     22.19257823	     89.95437384	      0.00000000	      0.00000000
      1.05000000	     -0.64879811	      4.81301904	      0.80317063	      0.62213513	      0.95234296	     -1.49732779	     26.20307263	    -12.27782202	    -22.76528367	    -40.45360480	     -0.70604860	      5.24779981	    -13.43818185	     16.67294918	     -2.29542494	     -3.57861352	      9.54491447	    -11.41414064	     -0.19921434	      5.02500750	      1.79920012	     -9.55236032	     -3.90781279	     -1.87688930	     -5.83703261	      1.52036931	    -10.40649499	    -15.29747665	     23.54930995	     89.95437384	      0.00000000	      0.00000000	      7.01225197	     16.91731374	      5.11834905	     23.18384106	     89.95437384	      0.00000000	      0.00000000
      1.06000000	     -1.08886981	      5.20868345	      1.01950375	      0.63403624	      0.95007261	     -1.49728077	     27.38802881	    -12.51768723	    -23.35883863	    -37.64847258	     -0.65708980	      5.36841640	    -12.91835253	     16.59903952	     -2.77903365	     -3.99402782	      9.89953852	    -11.12903218	     -0.19423825	      5.43227311	      1.59707925	     -9.62647472	     -3.49792930	     -2.22906109	     -6.37783090	      0.83219761	    -10.42989037	    -15.41001535	     23.07881648	     89.95437384	      0.00000000	      0.00000000	      8.27311736	     17.65655358	      5.18887178	     24.09706207	     89.95437384	      0.00000000	      0.00000000
      1.07000000	     -0.55022282	      4.27275470	      1.46310045	      0.64665512	      0.94953132	     -1.49593856	     26.58443303	    -11.16532937	    -24.89605490	    -33.51424967	     -0.58493400	      4.70890941	    -11.82686546	     16.22991478	     -4.24362193	     -2.54080677	     11.10932877	    -11.03163260	     -0.19253831	      5.36280638	     -1.27653414	    -11.33983843	     -4.14781562	     -1.18050569	     -7.12354560	      0.67148003	    -10.28673502	    -16.83656333	     21.90783473	     89.95437384	      0.00000000	      0.00000000	      9.45833778	     18.46137922	      4.79829986	     25.30398101	     89.95437384	      0.00000000	      0.00000000
      1.08000000	     -0.94373983	      4.74188883	      1.56703579	      0.65882040	      0.94691826	     -1.49529139	     27.64842335	    -11.46605196	    -25.64967626	    -30.77787673	     -0.53717529	      4.75645416	    -11.34844809	     16.23863434	     -4.77445772	     -3.01696498	     11.42263481	    -10.79682691	     -0.18844018	      5.77906985	     -1.36272484	    -11.43858479	     -3.75068861	     -1.65230303	     -7.50393742	     -0.06899877	    -10.32449714	    -16.93640732	     21.43288255	     89.95437384	      0.00000000	      0.00000000	     10.62378991	     19.22009384	      4.87969120	     26.24755084	     89.95437384	      0.00000000	      0.00000000
